<svg xmlns="http://www.w3.org/2000/svg" xmlns:xlink="http://www.w3.org/1999/xlink" viewBox="0 0 32 32"><defs><polygon id="a" points=".457 0 16.026 0 16.026 10.612 .457 10.612"/><polygon id="c" points=".071 .326 12.182 .326 12.182 6.406 .071 6.406"/><polygon id="e" points="0 .663 2.3 .663 2.3 1.83 0 1.83"/></defs><g fill="none" fill-rule="evenodd" transform="translate(1)"><g transform="translate(8)"><mask id="b" fill="white"><use xlink:href="#a"/></mask><path fill="#0847C3" d="M4.32 4.13c.56.58 1.08 1.12 1.76 1.47.29.15.59.26.92.22.88-.11 1.19-.71.84-1.66-.34-.93-.7-1.86-1.07-2.78-.22-.55-.11-.95.34-1.22.48-.28 1.1-.19 1.43.22.38.48.4 1.04.3 1.61-.12.66-.3 1.3-.46 1.96a3.3 3.3 0 0 0-.04 1.55c.13.56.65.87 1.3.83.5-.04.93-.26 1.37-.45.47-.2.52-.16.7.31a5 5 0 0 0 .53 1.12c.47.74.84.89 1.7.74.6-.1 1.18-.13 1.7.3.47.38.53 1.26.08 1.83-.42.53-1.01.59-1.53.1-.47-.46-.9-.95-1.36-1.43a3.46 3.46 0 0 0-3.35-1.03 1.3 1.3 0 0 1-.98-.17 3.5 3.5 0 0 0-4.01.1L2.9 8.8c-.5.33-1.05.53-1.64.63-.27.05-.65.16-.78-.2-.12-.33.08-.62.38-.81.54-.35 1.1-.68 1.64-1.02.34-.22.68-.44 1.02-.64.47-.28.68-.7.75-1.22.06-.45.02-.9.04-1.4" mask="url(#b)"/></g><path fill="#0847C3" d="M2.23 12.25c-.4-.01-.82-.02-1.2-.2-.43-.2-.53-.51-.3-.92.41-.8 1.04-.93 1.75-.38.4.32.76.68 1.2.95.97.6 1.32.5 2.05-.45.29-.39.48-.84.82-1.2.28-.28.6-.49 1.02-.5.45-.02.55.14.34.56-.22.43-.6.74-.86 1.14-.49.8-.82 1.46-.24 2.42.13.22.27.44.37.67.25.57.12 1.02-.41 1.35-.27.17-.57.31-.86.43-.35.14-.5.38-.47.75.06.71.17 1.4.57 2.03.48.77.3 1.6-.01 2.4-.25.63-.26.69.24 1.15.51.47.96.98 1.26 1.6.06.13.16.27.05.38-.1.1-.25.05-.37-.01a5.72 5.72 0 0 1-1.75-1.27 2.47 2.47 0 0 1-.6-2.28l.18-.96c.07-.35-.2-.55-.38-.77-.2-.25-.44-.49-.72-.69-.47-.34-.48-.74-.23-1.28.32-.72.75-1.4.87-2.2a3.9 3.9 0 0 0-.21-1.7c-.21-.69-.84-1.04-1.69-1.04-.13 0-.27 0-.42.02"/><path fill="#0847C3" d="M10.7 11.65c-1.02 0-1.76.62-2.04 1.71-.21.83-.17.88.67.75.22-.04.45-.06.67-.12a3.2 3.2 0 0 0 1.35-.6c.4-.34.52-.78.37-1.19-.14-.37-.47-.55-1.02-.55m6.4 2.7v-.5c0-.1-.01-.17-.13-.21-.67-.22-2.17.24-2.58.83-.27.38-.36.81-.14 1.25.21.42.58.62 1.04.63.91.04 1.92-.45 1.81-2m.05 1.76c-.72.92-1.64 1.11-2.7.86-.8-.2-1.16-.63-1.44-1.61.02.37-.17.6-.45.81-.4.29-.75.66-1.2.81-.43.15-.9.12-1.36.07a2.8 2.8 0 0 1-2.42-3.36 3.23 3.23 0 0 1 4-2.6c.77.22 1.3.86 1.24 1.57-.04.47-.25.87-.64 1.16-.7.52-1.54.66-2.38.8-.29.06-.58.1-.87.12-.28.02-.27.14-.2.34.46 1.24 2.02 1.61 3.02.95.38-.25.66-.66 1.15-.76.12-.02.08-.1.1-.18.64-1.52 1.52-1.97 3.16-2.05h.6c.33-.02.37-.12.27-.45-.25-.82-1.5-1.17-2.27-.82-.23.1-.45.23-.68.34-.22.1-.46.18-.6-.08-.15-.27.03-.47.24-.6.37-.24.8-.37 1.21-.4.75-.07 1.5-.06 2.14.4a2.28 2.28 0 0 1 1.04 2v2.3c0 .3.07.52.4.6.17.04.25.16.22.33-.03.16-.16.22-.3.23h-.93c-.15 0-.21-.09-.24-.21l-.11-.57"/><g transform="translate(18 10.667)"><mask id="d" fill="white"><use xlink:href="#c"/></mask><path fill="#0847C3" d="M4.57 5.55l-.48.36a2.5 2.5 0 0 1-2.03.44C1.28 6.2.76 5.52.71 4.58.67 3.73.7 2.88.67 2.04c0-.41.03-.83-.46-1.06C-.02.88.07.64.27.55.58.4.91.33 1.25.34c.2 0 .3.11.35.28.06.18.07.37.07.55 0 1.12 0 2.24.02 3.35.01.93.59 1.35 1.5 1.15.93-.2 1.37-.74 1.37-1.69 0-.82 0-1.63.02-2.45.01-.26-.18-.34-.32-.46-.27-.23-.27-.36.03-.54.18-.1.37-.16.57-.18.48-.07.61.02.65.5l.01.77c0 1.1.03 2.18 0 3.27-.02.48.2.8.62.87.29.05.58-.18.78-.43.34-.42.69-.82 1-1.26.19-.25.61-.4.54-.72-.05-.27-.33-.5-.54-.73C7.4 2.06 7.07 1.33 6.4.9a.29.29 0 0 1-.1-.36C6.34.4 6.47.4 6.6.4c.45 0 .91-.01 1.37 0 .32 0 .39.15.2.41-.16.23-.17.43.02.65.22.26.44.53.64.8.21.3.44.2.62.03.3-.29.56-.6.8-.93.13-.16.07-.34-.13-.46-.12-.05-.24-.14-.2-.3.05-.18.22-.18.37-.18h1.08c.14 0 .29 0 .32.18.04.15-.06.24-.18.32-.78.52-1.15 1.4-1.77 2.06-.13.13-.04.22.04.31l1.68 2c.12.16.26.28.45.33.2.06.3.2.27.4-.03.22-.2.2-.37.2l-1.41.01c-.14 0-.27 0-.35-.15-.07-.15 0-.27.11-.35.24-.18.17-.38.03-.55-.34-.4-.7-.78-1.04-1.17-.14-.17-.24-.17-.38 0-.28.35-.62.67-.83 1.08-.13.24-.16.45.13.6.13.08.25.18.2.36-.07.18-.23.19-.38.18-.55-.05-1.1.06-1.67-.07-.18-.04-.45.07-.69.07-.83-.01-.67.11-.96-.68" mask="url(#d)"/></g><path fill="#0847C3" d="M12.02 31.17c-.02-.59.24-.96.51-1.3.27-.33.28-.61-.03-.92-.4-.4-.74-.87-1.27-1.14-.33-.17-.67-.25-1.02-.1-.22.08-.27.07-.28-.18-.03-.6-.27-.84-.88-.97-.37-.08-.75-.56-.75-.94 0-.34.2-.48.5-.5.64-.04 1.15.26 1.63.62a10 10 0 0 1 2.32 2.36c.3.44.64.53 1.16.32a7.03 7.03 0 0 1 2.72-.45c.42 0 .78-.15 1.14-.35.27-.15.58-.26.85 0 .25.23.28.53.19.85-.1.4-.28.52-.68.39a5.7 5.7 0 0 0-1.8-.25c-.26 0-.53.05-.78.15-.24.08-.34.27-.38.52-.05.37-.2.45-.55.3-.18-.08-.35-.2-.53-.3-.47-.28-.89-.1-1.03.44-.1.32.01.6.1.9.05.16.12.3.16.46.14.43-.04.8-.42.89-.43.11-.75-.09-.85-.55-.03-.11-.03-.24-.03-.25m13.01-6.62c.15 1.12-.67 1.52-1.46 1.93-.54.28-1.08.55-1.53.99-.3.3-.65.56-1.04.76-.21.1-.44.2-.68.23-.41.05-.82-.16-.93-.48-.14-.42.1-.66.4-.87.34-.24.71-.4 1.1-.5.8-.2 1.43-.63 1.86-1.36.23-.4.51-.77.84-1.1.23-.23.5-.38.8-.47.36-.1.54.04.61.43.03.14.02.3.03.44"/><path fill="#9F0921" d="M11.28 23.64l-.43-1.01-.44 1.01h.87zM15 24.8c-.1.01-.12.16-.25.16H11.7c-.2 0-.35 0-.17-.28.17-.25-.11-.65-.42-.66h-.52c-.34 0-.57.38-.36.66.22.28.03.27-.16.28h-.4c-.15-.01-.19-.1-.11-.22.36-.63.56-1.33.85-2 .08-.19.2-.37.29-.56.07-.15.18-.22.35-.21.2 0 .29.1.36.27l.92 2.18c.06.17.13.39.3.35.15-.03.23-.23.22-.43v-1.7c0-.09.01-.2-.04-.26-.37-.42-.02-.37.24-.38h.36c.23.02.6-.06.23.36-.09.1-.05.26-.05.39v1.37c.01.17-.1.42.13.5.25.1.53.08.77-.07l.12-.1c.09-.09.16-.22.3-.15.17.08.08.23.07.35v.16H15zm8.08-4.86c.26-.03.45-.12.62-.25.2-.13.32-.31.22-.54-.12-.28-.38-.26-.62-.24-.3.03-.21.26-.22.43v.6m0 .8c0 .43.1.61.35.62.3 0 .72-.38.69-.65-.03-.3-.18-.51-.5-.53-.42-.02-.54.11-.54.56m1.17-.8l.2.1c.36.18.53.46.46.85-.06.4-.34.6-.72.66-.26.04-.53.02-.8.03h-1.05c-.13 0-.33-.05-.17-.22.17-.2.13-.4.14-.6V19.3c0-.09.02-.2-.03-.27-.41-.56.1-.39.33-.4.38-.02.77 0 1.16 0 .37 0 .76.02.92.43.15.4-.11.65-.44.87m-13.43-.37c.1.1-.12.35.1.45.3.13.86-.3.85-.61 0-.29-.24-.49-.57-.49-.45 0-.36.33-.38.65zm.1-.92h.93c.33.03.6.17.68.52.08.34-.02.62-.32.8-.23.13-.23.22-.06.4.28.31.27.8.63 1.06.09.07-.04.14-.11.15h-.97c-.13 0-.18-.07-.1-.21.12-.24-.16-1-.4-1.04-.14-.03-.37-.05-.36.19.01.28-.11.58.14.84.14.14.02.22-.12.22-.27.01-.54.02-.8 0-.19-.01-.26-.1-.1-.25.13-.12.12-.26.12-.41v-1.65c0-.09.01-.21-.04-.27-.45-.48.05-.34.24-.36.21-.02.43 0 .64 0v.01zm10.15 1.53c.04-.31-.03-.58-.15-.84a.72.72 0 0 0-.65-.45c-.32 0-.5.16-.63.41a1.8 1.8 0 0 0 .03 1.66c.28.52.88.53 1.2.03.16-.25.23-.53.2-.8m.82-.06c-.01.88-.71 1.53-1.64 1.52-.94 0-1.6-.66-1.59-1.56.01-.73.65-1.5 1.23-1.49 1.4.05 2 .5 2 1.53m-5.67-.67v1.6c0 .06.02.13.05.19.04.1.36.16.12.29a.87.87 0 0 1-.77-.02c-.02-.01-.03-.1-.01-.1.46-.36.18-.85.24-1.28.04-.26 0-.53 0-.8 0-.18.02-.36-.2-.44a.14.14 0 0 1-.09-.16c.02-.1.12-.1.2-.1.49-.06.9 0 1.2.5.24.42.56.8.9 1.2-.1-.5.3-1.06-.21-1.5-.05-.05-.06-.15.03-.17.25-.06.5-.06.75 0 .1.02.08.12.02.16-.3.2-.2.5-.2.76-.02.53 0 1.05-.01 1.58 0 .15.08.36-.17.43-.24.07-.36-.1-.48-.27L16.4 19.7l-.2-.24m-7.18.57h.24c.34-.05.47.1.41.43v.12c-.02.8-.09.88-.91 1.03-1.28.25-2.24-.61-2-1.8.13-.69.64-1.12 1.34-1.15.4-.01.8-.06 1.18.15.2.1.36.45.23.64-.11.15-.2.06-.28-.05-.4-.5-.7-.62-1.1-.43-.37.16-.7.85-.62 1.3.06.3.14.58.35.8.2.23.47.3.77.2.28-.1.3-.33.32-.59 0-.2-.06-.33-.3-.32-.12 0-.31.02-.3-.17 0-.2.2-.15.35-.16h.32"/><path fill="#9F0921" d="M16.03 23c.05.13-.11.39.06.47.2.1.4-.09.6-.17a.1.1 0 0 0 .03-.02c.21-.18.21-.43.13-.66-.1-.27-.34-.37-.62-.32-.28.04-.18.28-.2.45V23m-1.04 1.8c.2-.09.27-.25.26-.47v-1.7c0-.07.02-.18-.02-.23-.45-.57.1-.38.31-.4.46 0 .91 0 1.37.04.37.02.67.2.76.6.09.4-.09.7-.43.91-.24.15-.5.23-.79.27-.15.03-.38-.05-.4.16-.03.22-.11.48.07.69.06.06.18.1.14.2-.05.12-.17.1-.25.09-.34-.06-.72.17-1.02-.16m6.7.23c-.36.05-.66-.12-.95-.3a.7.7 0 0 1-.21-.23c-.08-.13-.09-.27.04-.36.14-.11.26-.01.33.1.18.29.42.46.76.46.12 0 .24-.03.35-.07.19-.06.3-.19.3-.39s-.13-.29-.3-.34c-.27-.08-.54-.14-.8-.23-.37-.11-.62-.34-.61-.75 0-.4.18-.7.55-.86.48-.2.97-.15 1.45.04.29.11.24.36.21.58-.02.15-.14.15-.24.06l-.2-.26a.65.65 0 0 0-.79-.2c-.15.06-.24.17-.25.33 0 .17.1.28.25.33l.61.19c.68.2.86.43.8 1.04-.03.43-.37.7-1 .85-.1.03-.2 0-.3 0m-2.7-.06h-.97c-.21 0-.28-.1-.12-.26.12-.12.12-.26.13-.4v-1.62c0-.12.02-.25-.06-.35-.23-.28-.08-.33.18-.33h1.74c.25 0 .4.3.28.52-.08.16-.2.1-.29 0a.74.74 0 0 0-.45-.22c-.6-.07-.8.16-.66.74.02.1.06.14.16.14.2 0 .43.04.63-.04.1-.05.2-.18.3 0 .08.15.07.3-.01.45-.08.14-.18.05-.27 0a.15.15 0 0 0-.04-.01c-.25-.04-.6-.16-.72.04-.14.24-.09.6 0 .9.06.2.74.21 1.01.04l.1-.08c.1-.08.15-.25.32-.18.15.07.08.2.06.32-.04.16-.06.35-.31.35h-1zm-4.94-3.38h-.97c-.13 0-.29-.07-.17-.2.2-.25.13-.52.14-.77v-1.3c0-.09.02-.2-.02-.27-.38-.52.06-.4.32-.41l1.53-.01c.28-.01.36.13.35.36 0 .08-.02.17-.07.22-.1.07-.18 0-.24-.07-.15-.16-.35-.2-.55-.22-.51-.04-.79.3-.54.76.15.28.5.14.75.07.3-.08.4-.02.37.3-.02.22-.12.29-.32.21-.03 0-.04-.04-.07-.05-.25-.03-.54-.15-.74.07-.13.14.02.88.15.97.3.21.77.2.95-.1a.79.79 0 0 1 .19-.2.18.18 0 0 1 .22-.01c.07.04.08.1.07.17-.07.27-.12.53-.5.48-.28-.03-.57 0-.85 0zm14.66 0h-.92c-.2 0-.4-.04-.15-.28a.3.3 0 0 0 .1-.22v-1.97l-.01-.08c-.02-.14-.32-.18-.16-.35.1-.12.3-.05.47-.05h1.53c.2-.01.34.04.34.28 0 .08.05.19-.08.23-.09.03-.17.07-.25-.02-.13-.16-.32-.2-.51-.2-.54-.04-.76.26-.58.76.03.08.07.12.14.12.2 0 .41 0 .6-.04.35-.07.45 0 .38.34-.03.15-.09.22-.24.15-.03 0-.05-.03-.07-.03-.26-.07-.62-.17-.76.02-.16.23-.1.6-.02.9.09.3.84.33 1.08.04l.16-.22c.06-.06.14-.1.22-.05.08.05.1.12.08.2-.05.29-.12.52-.5.47-.28-.03-.57 0-.85 0zm-3.37-1.48c-.1-.43.15-.9-.2-1.31-.09-.1.06-.16.15-.16h.8c.16 0 .27.1.13.22-.2.19-.16.4-.16.63v1.28c0 .63.12.72.7.52a.73.73 0 0 0 .22-.12c.1-.09.2-.24.37-.15.1.05.1.14.09.24-.02.2-.2.3-.32.3-.62.03-1.23.02-1.85.02-.09 0-.18-.09-.12-.16.33-.4.09-.88.19-1.31"/><path fill="#0847C3" d="M3.22 22.8c.5 0 .9.37.88.8-.02.5-.4.94-.82.93-.46 0-1.04-.54-1.01-.93.03-.43.5-.82.95-.8"/><g transform="translate(0 16.667)"><mask id="f" fill="white"><use xlink:href="#e"/></mask><path fill="#0847C3" d="M1.28 1.83c-.44-.02-.8-.1-1.1-.36C-.1 1.24-.05.98.27.84.87.6 1.47.6 2.04.94c.17.1.28.24.26.45-.03.22-.2.31-.4.35l-.62.09" mask="url(#f)"/></g><path fill="#0847C3" d="M19.52 4.43c.03-.43.16-.82.43-1.15.12-.14.27-.23.46-.17.18.05.26.18.3.34.14.52-.24 1.4-.7 1.66-.17.1-.28.06-.36-.1-.1-.18-.14-.38-.13-.58M5.27 9.25c-.34-.02-1-.55-1.1-.88-.08-.27.08-.46.38-.45.35.02 1 .55 1.08.89.07.26-.1.46-.36.44m7.46 8.42c0-.16 0-.36-.22-.35-.2 0-.2.21-.2.37 0 .15 0 .37.21.35.2 0 .21-.2.21-.37zm.34-.24c0 .05.02.11 0 .16-.07.2.17.54-.11.6-.19.03-.42.09-.63.05-.29-.06-.43-.25-.43-.54 0-.34.19-.55.52-.54.28.01.35-.05.29-.32-.03-.13.04-.27.22-.27.2 0 .14.16.14.26v.6zM12.11 2.7c-.02.12.07.3-.11.37-.2.07-.28-.1-.37-.23a2.88 2.88 0 0 1-.4-1.12c-.01-.11 0-.23.1-.3.12-.07.22.03.3.12.3.32.48.7.48 1.16m1.65 14.95c.13-.03.23-.09.24-.23 0-.07-.04-.14-.12-.13-.14.01-.2.13-.22.25-.02.07 0 .13.1.11m.62.2c-.2.4-.56.49-.87.29a.5.5 0 0 1-.15-.76c.2-.26.69-.33.9-.13.14.12.14.25 0 .37-.1.1-.22.14-.36.15-.08.01-.21 0-.16.15.03.1.13.14.23.11.12-.03.24-.1.41-.17m-5.24 11c.03-.38.35-.87.54-.83.14.02.27.07.25.27-.05.43-.36.9-.58.86-.19-.03-.21-.18-.21-.3"/></g></svg>